<svg width="215" height="37" viewBox="0 0 215 37" fill="none" xmlns="http://www.w3.org/2000/svg">
<path d="M1.32422 7.18164C0.782552 5.99674 0.511719 4.94727 0.511719 4.0332C0.511719 2.67904 1.11263 1.62109 2.31445 0.859375C3.00846 0.436198 3.70247 0.224609 4.39648 0.224609C5.69987 0.224609 6.99479 1.00326 8.28125 2.56055L24.5566 28.5352C26.6048 31.4128 26.4609 33.6217 24.125 35.1621C23.2617 35.7207 22.4238 36 21.6113 36C20.2064 36 18.8691 35.1452 17.5996 33.4355L1.32422 7.18164ZM25.4199 17.6426L35.373 2.30664C36.4733 0.901693 37.599 0.199219 38.75 0.199219C39.4102 0.199219 40.0788 0.427734 40.7559 0.884766C42.11 1.81576 42.7871 3.04297 42.7871 4.56641C42.7871 5.10807 42.7025 5.69206 42.5332 6.31836L32.3516 22.2383C30.7096 25.2344 28.7969 25.9199 26.6133 24.2949C24.4297 22.653 24.0319 20.4355 25.4199 17.6426ZM55.6155 30.9219C55.6155 34.3073 54.3459 36 51.8069 36C49.2678 36 47.9644 34.3073 47.8967 30.9219V5.53125C47.9644 2.14583 49.2678 0.453125 51.8069 0.453125C54.3459 0.453125 55.6155 2.14583 55.6155 5.53125V30.9219ZM65.9809 0.453125H88.8325C91.3716 0.453125 92.6411 1.72266 92.6411 4.26172C92.6411 6.80078 91.3716 8.07031 88.8325 8.07031H72.3286C70.6359 8.07031 69.7895 8.91667 69.7895 10.6094V32.1914C69.7895 34.7305 68.52 36 65.9809 36C63.4419 36 62.1723 34.7305 62.1723 32.1914V4.51562C62.1723 1.80729 63.4419 0.453125 65.9809 0.453125ZM77.4067 14.418H85.0239C87.563 14.418 88.8325 15.6875 88.8325 18.2266C88.8325 20.7656 87.563 22.0352 85.0239 22.0352H77.4067C74.8677 22.0352 73.5981 20.7656 73.5981 18.2266C73.5981 15.6875 74.8677 14.418 77.4067 14.418ZM132.257 28.5352C132.29 30.1263 131.461 31.7682 129.768 33.4609C128.076 35.1536 126.383 36 124.69 36H106.917C105.224 36 103.531 35.1536 101.839 33.4609C100.146 31.7682 99.2995 30.0755 99.2995 28.3828L99.3503 8.19727C99.3165 6.41992 100.146 4.6849 101.839 2.99219C103.531 1.29948 105.224 0.453125 106.917 0.453125H124.69C126.383 0.453125 128.076 1.29948 129.768 2.99219C131.461 4.6849 132.307 6.3776 132.307 8.07031L132.257 28.5352ZM124.69 24.5742V11.8789C124.69 9.33984 123.421 8.07031 120.882 8.07031H110.725C108.186 8.07031 106.917 9.35677 106.917 11.9297V24.5742C106.866 27.1471 108.135 28.4167 110.725 28.3828H120.882C123.421 28.3828 124.69 27.1133 124.69 24.5742ZM170.501 36H151.686C148.555 36 145.855 34.8997 143.587 32.6992C141.352 30.4987 140.235 27.8496 140.235 24.752V11.2695C140.235 8.20573 141.352 5.57357 143.587 3.37305C145.584 1.39258 148.073 0.402344 151.052 0.402344C151.39 0.402344 151.737 0.419271 152.093 0.453125H167.886C170.509 0.453125 171.821 1.77344 171.821 4.41406C171.821 7.03776 170.509 8.34961 167.886 8.34961H153.235C149.833 8.34961 148.132 9.99154 148.132 13.2754V23.7617C148.132 26.6562 149.935 28.1035 153.54 28.1035H170.501C173.158 28.1035 174.487 29.4069 174.487 32.0137V32.0391C174.47 34.6797 173.142 36 170.501 36ZM196.913 28.3828H206.536L206.46 13.6309L184.32 34.4258C183.338 35.2721 182.407 35.6953 181.527 35.6953C180.545 35.6953 179.648 35.1452 178.835 34.0449C178.158 33.1647 177.82 32.3099 177.82 31.4805C177.82 30.3971 178.378 29.373 179.495 28.4082L207.044 2.23047C208.398 0.842448 209.617 0.148438 210.7 0.148438C211.462 0.148438 211.97 0.190755 212.224 0.275391C213.493 0.715495 214.128 2.23893 214.128 4.8457V30.6426C214.128 34.2988 212.021 36.0846 207.806 36H196.913C193.951 36.1016 192.47 34.8405 192.47 32.2168C192.47 29.5931 193.951 28.3151 196.913 28.3828Z" fill="url(#paint0_linear_70_135)"/>
<defs>
<linearGradient id="paint0_linear_70_135" x1="224" y1="-3" x2="224" y2="49" gradientUnits="userSpaceOnUse">
<stop offset="0.3" stop-color="#0E273D"/>
<stop offset="1" stop-color="#2668A3"/>
</linearGradient>
</defs>
</svg>
